<svg width="16" height="16" viewBox="0 0 16 16" fill="none" xmlns="http://www.w3.org/2000/svg">
<g opacity="0.25">
<path fill-rule="evenodd" clip-rule="evenodd" d="M12.001 7.99999C12.001 7.86738 11.9483 7.74021 11.8545 7.64644C11.7608 7.55267 11.6336 7.49999 11.501 7.49999H5.70798L7.85498 5.35399C7.94886 5.2601 8.00161 5.13277 8.00161 4.99999C8.00161 4.86722 7.94886 4.73988 7.85498 4.64599C7.76109 4.5521 7.63375 4.49936 7.50098 4.49936C7.3682 4.49936 7.24086 4.5521 7.14698 4.64599L4.14698 7.64599C4.10041 7.69244 4.06347 7.74761 4.03826 7.80836C4.01306 7.8691 4.00008 7.93422 4.00008 7.99999C4.00008 8.06576 4.01306 8.13088 4.03826 8.19162C4.06347 8.25237 4.10041 8.30755 4.14698 8.35399L7.14698 11.354C7.24086 11.4479 7.3682 11.5006 7.50098 11.5006C7.63375 11.5006 7.76109 11.4479 7.85498 11.354C7.94886 11.2601 8.00161 11.1328 8.00161 11C8.00161 10.8672 7.94886 10.7399 7.85498 10.646L5.70798 8.49999H11.501C11.6336 8.49999 11.7608 8.44731 11.8545 8.35354C11.9483 8.25978 12.001 8.1326 12.001 7.99999Z" fill="#FBFFFE"/>
</g>
</svg>
