<svg width="17" height="17" viewBox="0 0 17 17" fill="none" xmlns="http://www.w3.org/2000/svg">
<g opacity="0.25">
<path fill-rule="evenodd" clip-rule="evenodd" d="M4.5 7.99999C4.5 7.86738 4.55268 7.74021 4.64645 7.64644C4.74021 7.55267 4.86739 7.49999 5 7.49999H10.793L8.646 5.35399C8.55211 5.2601 8.49937 5.13277 8.49937 4.99999C8.49937 4.86722 8.55211 4.73988 8.646 4.64599C8.73989 4.5521 8.86722 4.49936 9 4.49936C9.13278 4.49936 9.26011 4.5521 9.354 4.64599L12.354 7.64599C12.4006 7.69244 12.4375 7.74761 12.4627 7.80836C12.4879 7.8691 12.5009 7.93422 12.5009 7.99999C12.5009 8.06576 12.4879 8.13088 12.4627 8.19162C12.4375 8.25237 12.4006 8.30755 12.354 8.35399L9.354 11.354C9.26011 11.4479 9.13278 11.5006 9 11.5006C8.86722 11.5006 8.73989 11.4479 8.646 11.354C8.55211 11.2601 8.49937 11.1328 8.49937 11C8.49937 10.8672 8.55211 10.7399 8.646 10.646L10.793 8.49999H5C4.86739 8.49999 4.74021 8.44731 4.64645 8.35354C4.55268 8.25978 4.5 8.1326 4.5 7.99999Z" fill="#FBFFFE"/>
</g>
</svg>
