<svg width="173" height="36" viewBox="0 0 173 36" fill="none" xmlns="http://www.w3.org/2000/svg">
<path d="M7.18136 24.7198C6.86411 23.7822 6.7199 22.6172 6.7199 21.026C6.7199 19.4349 6.86411 18.2699 7.18136 17.3323C8.04658 14.6898 10.3538 13.2123 13.3821 13.2123C15.6317 13.2123 17.391 14.1215 18.6023 15.5422C18.7177 15.6559 18.7177 15.8548 18.5735 15.9684C18.5735 15.9684 18.5735 15.9684 18.5446 15.9968L16.5835 17.7301C16.4393 17.8437 16.2662 17.8437 16.1508 17.6448C15.3721 16.8208 14.6223 16.3662 13.3821 16.3662C12.0266 16.3662 11.0172 17.0197 10.5846 18.2983C10.3538 19.0371 10.2962 19.9179 10.2962 21.0545C10.2962 22.191 10.3827 23.1002 10.6134 23.839C11.046 25.0892 12.0843 25.7711 13.411 25.7711C14.6511 25.7711 15.4587 25.3165 16.1797 24.4925C16.2951 24.3504 16.4681 24.3504 16.6123 24.4641L18.5735 26.1973C18.7177 26.311 18.6888 26.4815 18.6023 26.6235C17.391 28.0158 15.6606 28.925 13.3821 28.925C10.3827 28.8398 8.04658 27.4191 7.18136 24.7198ZM74.7842 24.7198C74.4669 23.7822 74.3227 22.6172 74.3227 21.026C74.3227 19.4349 74.4669 18.2699 74.7842 17.3323C75.6494 14.6898 77.9567 13.2123 80.985 13.2123C83.2345 13.2123 85.0227 14.1215 86.2051 15.5422C86.3205 15.6559 86.3205 15.8548 86.1763 15.9684C86.1763 15.9684 86.1763 15.9684 86.1475 15.9968L84.1863 17.7301C84.0421 17.8437 83.869 17.8437 83.7537 17.6448C82.975 16.8208 82.2251 16.3662 80.985 16.3662C79.6294 16.3662 78.62 17.0197 78.1874 18.2983C77.9278 19.0371 77.8701 19.9179 77.8701 21.0545C77.8701 22.191 77.9567 23.1002 78.1874 23.839C78.62 25.0892 79.6583 25.7711 80.985 25.7711C82.2251 25.7711 83.0327 25.3165 83.7537 24.4925C83.869 24.3504 84.0421 24.3504 84.1863 24.4641L86.1475 26.1973C86.2917 26.311 86.2628 26.4815 86.1763 26.6235C84.965 28.0158 83.2345 28.925 80.9561 28.925C77.9567 28.8398 75.6783 27.4191 74.7842 24.7198ZM154.096 28.4988C153.923 28.4988 153.779 28.3852 153.779 28.1863V19.577C153.779 17.6448 152.799 16.3094 150.924 16.3094C149.107 16.3094 148.04 17.6448 148.04 19.577V28.1863C148.04 28.3567 147.924 28.4988 147.723 28.4988H144.838C144.665 28.4988 144.521 28.3852 144.521 28.1863V19.577C144.521 17.6448 143.541 16.3094 141.666 16.3094C139.849 16.3094 138.782 17.6448 138.782 19.577V28.1863C138.782 28.3567 138.667 28.4988 138.465 28.4988H135.581C135.408 28.4988 135.263 28.3852 135.263 28.1863V13.8658C135.263 13.6953 135.379 13.5533 135.581 13.5533H138.465C138.638 13.5533 138.782 13.6669 138.782 13.8658V14.9455H138.811C139.474 14.0079 140.772 13.2123 142.791 13.2123C144.579 13.2123 145.992 13.9227 146.915 15.1728H146.944C148.097 13.9227 149.597 13.2123 151.76 13.2123C155.25 13.2123 157.24 15.5706 157.24 18.7814V28.2147C157.24 28.3852 157.125 28.5272 156.923 28.5272L154.096 28.4988ZM161.278 33.7553C161.105 33.7553 160.96 33.6417 160.96 33.4428V30.9708C160.96 30.8003 161.076 30.6583 161.278 30.6583H161.826C163.037 30.6583 163.614 30.1184 164.075 28.8966L164.508 27.6464L158.999 13.5533C158.942 13.3828 159.086 13.2407 159.259 13.2407H162.345C162.518 13.2407 162.662 13.3544 162.72 13.5533L166.094 23.2991H166.181L169.411 13.5533C169.497 13.3828 169.584 13.2407 169.786 13.2407H172.728C172.901 13.2407 173.045 13.3544 172.987 13.5533L167.305 29.1523C166.008 32.704 164.767 33.8122 162.229 33.8122L161.278 33.7553ZM30.254 23.7822C30.5136 22.9866 30.5712 22.2762 30.5712 21.026C30.5712 19.7759 30.4847 19.0939 30.254 18.2699C29.8214 17.0197 28.8408 16.3378 27.4564 16.3378C26.0721 16.3378 25.0627 17.0481 24.6012 18.2699C24.3416 19.0655 24.2839 19.7474 24.2839 21.026C24.2839 22.2762 24.3705 22.9866 24.6012 23.7822C25.0338 25.0324 26.0144 25.7143 27.4564 25.7143C28.8408 25.7711 29.8214 25.0324 30.254 23.7822ZM21.2268 24.7198C20.9096 23.6685 20.7077 22.674 20.7077 21.026C20.7077 19.3781 20.8519 18.412 21.2268 17.3323C22.0632 14.7182 24.3705 13.2123 27.4276 13.2123C30.4559 13.2123 32.7343 14.7182 33.5995 17.3323C33.9168 18.3836 34.1187 19.3781 34.1187 21.026C34.1187 22.674 33.9745 23.6401 33.5995 24.7198C32.7631 27.3339 30.4559 28.8398 27.4276 28.8398C24.3993 28.8398 22.0921 27.3339 21.2268 24.7198ZM94.5978 13.2123C92.1175 13.2123 90.4736 13.7806 89.2911 14.6898C89.1757 14.8035 89.1469 14.9455 89.2046 15.0876L90.3582 17.1334C90.4736 17.2755 90.6466 17.3039 90.7908 17.2186C91.5118 16.6504 92.5501 16.1673 94.2229 16.1673C96.6743 16.1673 97.5107 16.8777 97.5684 18.4972V23.4696C97.5684 25.2028 96.3571 26.0268 94.2229 26.0268C92.5501 26.0268 91.6272 25.4302 91.6272 24.1515C91.6272 22.7593 92.6078 22.1342 94.8574 22.1342H95.5496C95.7226 22.1342 95.8668 22.0205 95.8668 21.8216V19.8611C95.8668 19.6906 95.7514 19.5485 95.5496 19.5485H94.3094C90.5889 19.5485 88.3105 21.0545 88.3105 24.2936C88.3105 27.4191 90.6178 28.8398 93.3865 28.8398C95.4919 28.8398 96.9339 28.1294 97.6261 27.1066H97.6549V28.1863C97.6549 28.3567 97.7703 28.4988 97.9722 28.4988H100.597C100.77 28.4988 100.914 28.3852 100.914 28.1863V18.4404C100.856 14.8035 99.1835 13.2123 94.5978 13.2123ZM57.7104 19.5201C57.6239 19.5201 57.5662 19.5485 57.5662 19.6622V21.9921C57.5662 22.0773 57.5951 22.1342 57.7104 22.1342H65.4398C65.6705 22.1342 65.757 22.0205 65.757 21.8216C65.757 19.4065 65.6128 18.3836 65.2379 17.3323C64.4015 14.7751 62.1519 13.2123 59.0371 13.2123C56.0377 13.2123 53.7304 14.7182 52.8652 17.3323C52.5479 18.2983 52.346 19.4917 52.346 21.026C52.346 22.5604 52.5768 23.7253 52.894 24.6914C53.7304 27.3054 55.98 28.8398 59.1525 28.8398C61.9212 28.8398 64.0266 27.7885 65.3532 26.2826C65.4686 26.1405 65.4686 25.97 65.3244 25.8564L63.5074 24.2368C63.3632 24.1231 63.1902 24.1231 63.046 24.322C62.2673 25.146 61.229 25.7427 59.4986 25.7427C57.8258 25.7427 56.6145 24.9471 56.153 23.4696C56.0665 23.2423 56.0088 23.0434 55.98 22.8161C55.8646 22.1058 55.8069 21.3954 55.8069 20.6567C55.8358 19.8043 55.8935 19.2644 55.98 18.5825V18.4972C56.0088 18.3268 56.0377 18.1847 56.0953 18.0426C56.4991 16.8208 57.6239 16.1105 59.0371 16.1105C60.4503 16.1105 61.5463 16.8208 61.95 18.0426C62.0654 18.4404 62.1231 18.8666 62.1231 19.2928C62.1231 19.4065 62.0365 19.4633 61.95 19.4633L57.7104 19.5201ZM49.4908 7.21705H46.6067C46.4337 7.21705 46.2895 7.3307 46.2895 7.5296V21.6227C46.2606 22.4751 46.1453 23.0434 46.0011 23.5549C45.5973 24.8051 44.6167 25.4586 43.2035 25.4586C41.8192 25.4586 40.8386 24.7766 40.4348 23.5549C40.2041 22.8729 40.1175 22.1342 40.1175 20.7703C40.1175 19.4065 40.2329 18.6677 40.4348 17.9858C40.8386 16.764 41.7903 16.0821 43.117 16.0537H44.3571C44.4148 16.0537 44.4725 15.9684 44.4725 15.9116V13.0702C44.4725 12.985 44.4437 12.9566 44.3571 12.9282H42.1941C39.6849 12.9566 37.868 14.15 37.0893 16.5083C36.7143 17.6448 36.5413 18.6961 36.5413 20.7135C36.5413 22.7309 36.6855 23.7537 37.0893 24.9187C37.868 27.3339 39.7426 28.4988 42.3094 28.4988C44.3571 28.4988 45.5973 27.7317 46.2895 26.7372H46.3183V27.8453C46.3183 28.0158 46.4337 28.1579 46.6356 28.1579H49.5196C49.6927 28.1579 49.8369 28.0442 49.8369 27.8453V7.41595C49.8081 7.33071 49.6638 7.21705 49.4908 7.21705ZM124.736 19.5201C124.65 19.5201 124.592 19.5485 124.592 19.6622V21.9921C124.592 22.0773 124.621 22.1342 124.736 22.1342H132.466C132.697 22.1342 132.783 22.0205 132.783 21.8216C132.783 19.4065 132.639 18.3836 132.264 17.3323C131.428 14.7751 129.178 13.2123 126.063 13.2123C123.064 13.2123 120.756 14.7182 119.891 17.3323C119.574 18.2983 119.372 19.4917 119.372 21.026C119.372 22.5604 119.603 23.7253 119.92 24.6914C120.756 27.3054 123.006 28.8398 126.178 28.8398C128.947 28.8398 131.053 27.7885 132.379 26.2826C132.495 26.1405 132.495 25.97 132.35 25.8564L130.533 24.2368C130.389 24.1231 130.216 24.1231 130.072 24.322C129.293 25.146 128.255 25.7427 126.525 25.7427C124.852 25.7427 123.64 24.9471 123.179 23.4696C123.093 23.2423 123.035 23.0434 123.006 22.8161C122.891 22.1058 122.833 21.3954 122.833 20.6567C122.862 19.8043 122.919 19.2644 123.006 18.5825V18.4972C123.035 18.3268 123.064 18.1847 123.121 18.0426C123.525 16.8208 124.65 16.1105 126.063 16.1105C127.476 16.1105 128.572 16.8208 128.976 18.0426C129.091 18.4404 129.149 18.8666 129.149 19.2928C129.149 19.4065 129.063 19.4633 128.976 19.4633L124.736 19.5201ZM116.488 7.21705H113.604C113.431 7.21705 113.287 7.3307 113.287 7.5296V21.6511C113.258 22.5035 113.142 23.0718 112.998 23.5833C112.594 24.8335 111.614 25.5154 110.201 25.5154C108.787 25.5154 107.836 24.8335 107.432 23.5833C107.201 22.9013 107.115 22.1626 107.115 20.7987C107.115 19.4349 107.23 18.6961 107.432 18.0142C107.836 16.7924 108.787 16.1105 110.114 16.0821H111.354C111.527 16.0821 111.672 15.9684 111.672 15.7695V13.2976C111.672 13.1271 111.556 12.985 111.354 12.985H109.249C106.74 13.0134 104.865 14.2068 104.115 16.5651C103.74 17.7017 103.567 18.753 103.567 20.7987C103.567 22.8161 103.712 23.8958 104.115 25.0324C104.894 27.4475 106.769 28.6125 109.335 28.6125C111.383 28.6125 112.623 27.8453 113.344 26.8508H113.373V27.959C113.373 28.1294 113.489 28.2715 113.69 28.2715H116.575C116.748 28.2715 116.892 28.1579 116.892 27.959V7.5296C116.834 7.3307 116.69 7.21705 116.488 7.21705ZM74.9284 33.0166V35.4033C74.9284 35.8579 75.0438 36 75.534 36H85.2822C85.7437 36 85.8879 35.8864 85.8879 35.4033V33.0166C85.8879 32.562 85.7725 32.4199 85.2822 32.4199H74.9284C75.0438 32.4199 74.9284 32.5335 74.9284 33.0166ZM4.2396 32.4199H3.66278C3.66278 32.2778 3.7493 32.3915 3.66278 32.4199V3.60852C3.7493 3.63693 3.66278 3.75059 3.66278 3.60852H68.843C68.843 3.75059 68.7565 3.63693 68.843 3.60852V31.8232C68.843 32.2494 68.7565 32.3631 68.843 32.4199H4.2396ZM72.5058 0C72.4192 0.0852407 72.4192 0.113654 72.5058 0C72.4192 0.0852407 72.4192 0.0852407 72.5058 0C72.3616 0.0284136 72.275 0 71.9001 0H0C0.0865224 0.0852407 0 0.170483 0 0.596687V36C0.0288408 35.8863 0 35.8295 0 36H71.9001C72.3039 36 72.3616 35.9716 72.5058 36C72.4769 35.8579 72.5058 35.7727 72.5058 35.4033V0Z" fill="#FBFFFE"/>
</svg>
